<svg xmlns="http://www.w3.org/2000/svg" width="512" height="512"><defs><clipPath id="g" clipPathUnits="userSpaceOnUse"><rect width="448" height="448" x="32" y="32" ry="16" style="fill:#ab4aba;fill-opacity:1;stroke:none;stroke-width:3;stroke-dasharray:none;stroke-opacity:1"/></clipPath><clipPath id="f" clipPathUnits="userSpaceOnUse"><rect width="448" height="448" x="32" y="32" ry="16" style="fill:#ab4aba;fill-opacity:1;stroke:none;stroke-width:3;stroke-dasharray:none;stroke-opacity:1"/></clipPath><clipPath id="e" clipPathUnits="userSpaceOnUse"><rect width="448" height="448" x="32" y="32" ry="16" style="fill:#ab4aba;fill-opacity:1;stroke:none;stroke-width:3;stroke-dasharray:none;stroke-opacity:1"/></clipPath><clipPath id="d" clipPathUnits="userSpaceOnUse"><rect width="448" height="448" x="32" y="32" ry="16" style="fill:#ab4aba;fill-opacity:1;stroke:none;stroke-width:3;stroke-dasharray:none;stroke-opacity:1" transform="rotate(-43.216)"/></clipPath><clipPath id="c" clipPathUnits="userSpaceOnUse"><rect width="448" height="448" x="32" y="32" ry="16" style="fill:#ab4aba;fill-opacity:1;stroke:none;stroke-width:3;stroke-dasharray:none;stroke-opacity:1"/></clipPath><clipPath id="b" clipPathUnits="userSpaceOnUse"><rect width="448" height="448" x="32" y="32" ry="16" style="fill:#ab4aba;fill-opacity:1;stroke:none;stroke-width:3;stroke-dasharray:none;stroke-opacity:1"/></clipPath><clipPath id="a" clipPathUnits="userSpaceOnUse"><rect width="448" height="448" x="32" y="32" ry="16" style="fill:#ab4aba;fill-opacity:1;stroke:none;stroke-width:3;stroke-dasharray:none;stroke-opacity:1"/></clipPath></defs><path d="M160 32h32v332h-32z" clip-path="url(#a)" style="fill:#5944ba;fill-opacity:1;stroke:none;stroke-width:3;stroke-dasharray:none;stroke-opacity:1"/><rect width="32" height="256" x="288" y="224" clip-path="url(#b)" ry="16" style="fill:#ab4aba;fill-opacity:1;stroke:none;stroke-width:3;stroke-dasharray:none;stroke-opacity:1"/><path d="M288 32h32v192h-32z" clip-path="url(#c)" style="fill:#5944ba;fill-opacity:1;stroke:none;stroke-width:3;stroke-dasharray:none;stroke-opacity:1"/><path d="M361.638-282.037h32v600h-32z" clip-path="url(#d)" style="fill:#ab4aba;fill-opacity:1;stroke-width:3" transform="rotate(43.216)"/><path d="M32 256h32v224H32z" clip-path="url(#e)" style="fill:#5944ba;fill-opacity:1;stroke:none;stroke-width:3;stroke-dasharray:none;stroke-opacity:1"/><path d="M32 32h32v192H32z" clip-path="url(#f)" style="fill:#5944ba;fill-opacity:1;stroke:none;stroke-width:3;stroke-dasharray:none;stroke-opacity:1"/><rect width="416" height="32" x="64" y="32" clip-path="url(#g)" ry="0" style="fill:#5944ba;fill-opacity:1;stroke:none;stroke-width:3;stroke-dasharray:none;stroke-opacity:1"/></svg>