<svg xmlns="http://www.w3.org/2000/svg" xml:space="preserve" width="1920" height="512" viewBox="0 0 508 135.467"><defs><clipPath id="g" clipPathUnits="userSpaceOnUse"><rect width="448" height="448" x="32" y="32" ry="16" style="fill:#ab4aba;fill-opacity:1;stroke:none;stroke-width:3;stroke-dasharray:none;stroke-opacity:1"/></clipPath><clipPath id="f" clipPathUnits="userSpaceOnUse"><rect width="448" height="448" x="32" y="32" ry="16" style="fill:#ab4aba;fill-opacity:1;stroke:none;stroke-width:3;stroke-dasharray:none;stroke-opacity:1"/></clipPath><clipPath id="e" clipPathUnits="userSpaceOnUse"><rect width="448" height="448" x="32" y="32" ry="16" style="fill:#ab4aba;fill-opacity:1;stroke:none;stroke-width:3;stroke-dasharray:none;stroke-opacity:1"/></clipPath><clipPath id="d" clipPathUnits="userSpaceOnUse"><rect width="448" height="448" x="32" y="32" ry="16" style="fill:#ab4aba;fill-opacity:1;stroke:none;stroke-width:3;stroke-dasharray:none;stroke-opacity:1" transform="rotate(-43.216)"/></clipPath><clipPath id="c" clipPathUnits="userSpaceOnUse"><rect width="448" height="448" x="32" y="32" ry="16" style="fill:#ab4aba;fill-opacity:1;stroke:none;stroke-width:3;stroke-dasharray:none;stroke-opacity:1"/></clipPath><clipPath id="b" clipPathUnits="userSpaceOnUse"><rect width="448" height="448" x="32" y="32" ry="16" style="fill:#ab4aba;fill-opacity:1;stroke:none;stroke-width:3;stroke-dasharray:none;stroke-opacity:1"/></clipPath><clipPath id="a" clipPathUnits="userSpaceOnUse"><rect width="448" height="448" x="32" y="32" ry="16" style="fill:#ab4aba;fill-opacity:1;stroke:none;stroke-width:3;stroke-dasharray:none;stroke-opacity:1"/></clipPath></defs><g transform="matrix(.26458 0 0 .26458 0 0)"><path d="M160 32h32v332h-32z" clip-path="url(#a)" style="fill:#5944ba;fill-opacity:1;stroke:none;stroke-width:3;stroke-dasharray:none;stroke-opacity:1"/><rect width="32" height="256" x="288" y="224" clip-path="url(#b)" ry="16" style="fill:#ab4aba;fill-opacity:1;stroke:none;stroke-width:3;stroke-dasharray:none;stroke-opacity:1"/><path d="M288 32h32v192h-32z" clip-path="url(#c)" style="fill:#5944ba;fill-opacity:1;stroke:none;stroke-width:3;stroke-dasharray:none;stroke-opacity:1"/><path d="M361.638-282.037h32v600h-32z" clip-path="url(#d)" style="fill:#ab4aba;fill-opacity:1;stroke-width:3" transform="rotate(43.216)"/></g><g transform="matrix(.26458 0 0 .26458 0 0)"><path d="M32 256h32v224H32z" clip-path="url(#e)" style="fill:#5944ba;fill-opacity:1;stroke:none;stroke-width:3;stroke-dasharray:none;stroke-opacity:1"/><path d="M32 32h32v192H32z" clip-path="url(#f)" style="fill:#5944ba;fill-opacity:1;stroke:none;stroke-width:3;stroke-dasharray:none;stroke-opacity:1"/><rect width="416" height="32" x="64" y="32" clip-path="url(#g)" ry="0" style="fill:#5944ba;fill-opacity:1;stroke:none;stroke-width:3;stroke-dasharray:none;stroke-opacity:1"/></g><g style="display:inline"><rect width="16.933" height="16.933" x="482.6" y="110.067" rx="4.233" ry="3.969" style="fill:#000;stroke-width:.79375"/><path d="M-94.552 107.89a4.366 4.366 0 0 1 2.996-1.16h5.987c2.345 0 4.233 1.77 4.233 3.969v62.92H-9.6a3.96 3.96 0 0 1 3.969 3.968v6.516a3.96 3.96 0 0 1-3.969 3.969h-148.076a3.96 3.96 0 0 1-3.969-3.969v-6.516a3.957 3.957 0 0 1 3.97-3.969h61.886v-62.92c0-1.099.472-2.09 1.237-2.808zM-340.268 357.89a3.956 3.956 0 0 1 2.81-1.16h65.57v-60.44c0-2.198 1.889-3.968 4.234-3.968h5.987c2.345 0 4.233 1.77 4.233 3.969v60.439h68.05a3.96 3.96 0 0 1 3.97 3.969v6.516a3.96 3.96 0 0 1-3.969 3.969h-148.076a3.96 3.96 0 0 1-3.968-3.97V360.7c0-1.1.442-2.091 1.16-2.809z" style="fill:#000;stroke-width:.79375" transform="scale(-1 1) rotate(45)"/><path d="M199.617-185.333c-.16.16-.301.333-.43.51a3.955 3.955 0 0 0-1.621 3.2v148.076a3.96 3.96 0 0 0 3.968 3.968h6.516a3.953 3.953 0 0 0 2.736-1.094c.42-.2.817-.471 1.166-.82l53.928-53.929a4.191 4.191 0 0 0 0-5.94l-4.28-4.28a4.191 4.191 0 0 0-5.94 0L212.02-52v-125.295l51.746-51.746a4.191 4.191 0 0 0 0-5.94l-4.28-4.28a4.191 4.191 0 0 0-5.94 0zM274.131-258.65c-.16.16-.3.332-.43.51a3.954 3.954 0 0 0-1.62 3.2v69.541a4.199 4.199 0 0 0 0 1.368v77.166a3.96 3.96 0 0 0 3.968 3.969h6.516a3.952 3.952 0 0 0 2.736-1.094c.42-.201.816-.472 1.166-.82l53.928-53.93a4.191 4.191 0 0 0 0-5.94l-4.28-4.28a4.191 4.191 0 0 0-5.94 0l-43.641 43.642v-55.206l50.87-50.87a4.191 4.191 0 0 0 0-5.94l-4.281-4.28a4.191 4.191 0 0 0-5.94 0l-40.649 40.649v-49.648l51.746-51.746a4.191 4.191 0 0 0 0-5.94l-4.28-4.28a4.191 4.191 0 0 0-5.94 0z" style="fill:#000;stroke-width:.79375" transform="rotate(45)"/></g></svg>
